<?xml version="1.0" encoding="UTF-8" standalone="no"?>
<!-- Created with Inkscape (http://www.inkscape.org/) -->
<svg
   xmlns:svg="http://www.w3.org/2000/svg"
   xmlns="http://www.w3.org/2000/svg"
   version="1.0"
   width="100"
   height="100"
   id="svg2">
  <defs
     id="defs4" />
  <path
     d="M 41.339844,70 L 41.339844,68.699219 C 44.316381,68.60547 46.214817,68.136721 47.035156,67.292969 C 47.85544,66.449222 48.265596,64.457037 48.265625,61.316406 L 48.265625,46.726563 L 47.28125,46.691406 C 46.414035,46.69143 45.699192,46.855492 45.136719,47.183594 C 44.574194,47.511741 44.123022,47.945335 43.783203,48.484375 C 43.443335,49.023458 41.890602,51.847674 39.125,56.957031 L 32.128906,70 L 20,70 L 20,68.699219 C 23.468746,68.160158 26.03515,66.812503 27.699219,64.65625 C 29.363271,62.500008 32.187487,57.894543 36.171875,50.839844 C 37.624982,48.26174 39.042949,46.515648 40.425781,45.601563 C 39.019512,44.570338 37.953106,43.357449 37.226563,41.962891 C 36.499983,40.568389 35.539046,37.86722 34.34375,33.859375 C 33.382798,30.695352 32.662096,28.732463 32.181641,27.970703 C 31.70116,27.209027 31.05077,26.828168 30.230469,26.828125 C 29.457021,26.828168 28.44921,27.17973 27.207031,27.882813 C 26.011712,28.562541 24.992182,28.902385 24.148438,28.902344 C 23.164059,28.902385 22.349606,28.609416 21.705078,28.023438 C 21.060545,27.437543 20.73828,26.710981 20.738281,25.84375 C 20.73828,24.789108 21.230467,23.845749 22.214844,23.013672 C 23.199215,22.181688 24.652338,21.765673 26.574219,21.765625 C 28.44921,21.765673 30.130849,22.246142 31.619141,23.207031 C 33.107408,24.168015 34.167954,25.293013 34.800781,26.582031 C 35.433578,27.871136 36.324202,30.367227 37.472656,34.070313 C 38.503887,37.421908 39.294902,39.671905 39.845703,40.820313 C 40.396463,41.968778 41.181619,42.841824 42.201172,43.439453 C 43.220679,44.037135 44.527319,44.335963 46.121094,44.335938 C 46.660129,44.335963 47.374972,44.265651 48.265625,44.125 L 48.265625,31.011719 C 48.265596,27.871136 47.85544,25.87895 47.035156,25.035156 C 46.214817,24.191452 44.316381,23.722703 41.339844,23.628906 L 41.339844,22.328125 L 61.871094,22.328125 L 61.871094,23.628906 C 58.917929,23.722703 57.037072,24.191452 56.228516,25.035156 C 55.419886,25.87895 55.015589,27.871136 55.015625,31.011719 L 55.015625,44.125 C 55.671839,44.265651 56.281213,44.335963 56.84375,44.335938 C 58.601523,44.335963 59.984334,44.037135 60.992188,43.439453 C 61.999957,42.841824 62.779253,41.986356 63.330078,40.873047 C 63.880815,39.759796 64.683548,37.49222 65.738281,34.070313 C 66.863234,30.390665 67.742139,27.912151 68.375,26.634766 C 69.007763,25.357467 70.068309,24.226608 71.556641,23.242188 C 73.044868,22.25786 74.738226,21.765673 76.636719,21.765625 C 78.464785,21.765673 79.894471,22.16411 80.925781,22.960938 C 81.956969,23.757859 82.472593,24.718795 82.472656,25.84375 C 82.472593,26.710981 82.156187,27.437543 81.523438,28.023438 C 80.890563,28.609416 80.070252,28.902385 79.0625,28.902344 C 78.265566,28.902385 77.246036,28.562541 76.003906,27.882813 C 74.738226,27.17973 73.706977,26.828168 72.910156,26.828125 C 72.136666,26.828168 71.503854,27.232465 71.011719,28.041016 C 70.51948,28.849651 69.804637,30.789102 68.867188,33.859375 C 67.648389,37.890657 66.681593,40.597686 65.966797,41.980469 C 65.251907,43.363308 64.191361,44.570338 62.785156,45.601563 C 63.933549,46.445336 64.888626,47.42971 65.650391,48.554688 C 66.412062,49.679708 68.164014,52.644549 70.90625,57.449219 C 73.507758,62.042977 75.540959,64.943364 77.005859,66.150391 C 78.470644,67.357425 80.539001,68.207033 83.210938,68.699219 L 83.210938,70 L 71.082031,70 C 70.80073,69.390626 68.996044,66.00391 65.667969,59.839844 L 60.183594,49.679688 C 59.855428,49.046896 59.37496,48.390647 58.742188,47.710938 C 58.109336,47.031273 57.171837,46.69143 55.929688,46.691406 C 55.671839,46.69143 55.367151,46.703148 55.015625,46.726563 L 55.015625,61.316406 C 55.015589,64.457037 55.419886,66.449222 56.228516,67.292969 C 57.037072,68.136721 58.917929,68.60547 61.871094,68.699219 L 61.871094,70 L 41.339844,70 z "
     style="font-size:72px;font-style:normal;font-weight:normal;fill:black;fill-opacity:1;stroke:none;stroke-width:1px;stroke-linecap:butt;stroke-linejoin:miter;stroke-opacity:1;font-family:Times New Roman"
     id="text1944" />
</svg>
